<?xml version="1.0" encoding="UTF-8"?>
<!DOCTYPE svg PUBLIC "-//W3C//DTD SVG 1.1//EN" "http://www.w3.org/Graphics/SVG/1.1/DTD/svg11.dtd">
<svg xmlns="http://www.w3.org/2000/svg" version="1.1" width="72px" height="72px" style="shape-rendering:geometricPrecision; text-rendering:geometricPrecision; image-rendering:optimizeQuality; fill-rule:evenodd; clip-rule:evenodd" xmlns:xlink="http://www.w3.org/1999/xlink">
<g><path style="opacity:1" fill="#101010" d="M 23.5,-0.5 C 32.8333,-0.5 42.1667,-0.5 51.5,-0.5C 51.5,0.833333 51.5,2.16667 51.5,3.5C 52.8333,3.5 54.1667,3.5 55.5,3.5C 55.5,6.16667 55.5,8.83333 55.5,11.5C 59.5,11.5 63.5,11.5 67.5,11.5C 67.5,14.1667 67.5,16.8333 67.5,19.5C 68.8333,19.5 70.1667,19.5 71.5,19.5C 71.5,28.8333 71.5,38.1667 71.5,47.5C 70.1667,47.5 68.8333,47.5 67.5,47.5C 67.5,48.8333 67.5,50.1667 67.5,51.5C 68.8333,51.5 70.1667,51.5 71.5,51.5C 71.5,56.8333 71.5,62.1667 71.5,67.5C 59.5,67.5 47.5,67.5 35.5,67.5C 35.5,68.8333 35.5,70.1667 35.5,71.5C 31.5,71.5 27.5,71.5 23.5,71.5C 23.5,70.1667 23.5,68.8333 23.5,67.5C 20.8333,67.5 18.1667,67.5 15.5,67.5C 15.5,63.5 15.5,59.5 15.5,55.5C 12.8333,55.5 10.1667,55.5 7.5,55.5C 7.5,54.1667 7.5,52.8333 7.5,51.5C 15.5,51.5 23.5,51.5 31.5,51.5C 31.5,52.8333 31.5,54.1667 31.5,55.5C 27.5,55.5 23.5,55.5 19.5,55.5C 19.5,56.8333 19.5,58.1667 19.5,59.5C 19.5,60.8333 19.5,62.1667 19.5,63.5C 26.1667,63.5 32.8333,63.5 39.5,63.5C 39.5,62.1667 39.5,60.8333 39.5,59.5C 40.8333,59.5 42.1667,59.5 43.5,59.5C 43.5,56.8333 43.5,54.1667 43.5,51.5C 50.1667,51.5 56.8333,51.5 63.5,51.5C 63.5,50.1667 63.5,48.8333 63.5,47.5C 55.5,47.5 47.5,47.5 39.5,47.5C 38.1667,47.5 36.8333,47.5 35.5,47.5C 35.5,39.5 35.5,31.5 35.5,23.5C 34.1667,23.5 32.8333,23.5 31.5,23.5C 31.5,22.1667 31.5,20.8333 31.5,19.5C 23.5,19.5 15.5,19.5 7.5,19.5C 7.5,18.1667 7.5,16.8333 7.5,15.5C 11.5,15.5 15.5,15.5 19.5,15.5C 19.5,11.5 19.5,7.5 19.5,3.5C 20.8333,3.5 22.1667,3.5 23.5,3.5C 23.5,2.16667 23.5,0.833333 23.5,-0.5 Z"/></g>
<g><path style="opacity:1" fill="#d1202b" d="M 47.5,15.5 C 46.1667,15.5 44.8333,15.5 43.5,15.5C 42.1667,15.5 40.8333,15.5 39.5,15.5C 39.5,14.1667 39.5,12.8333 39.5,11.5C 38.1667,11.5 36.8333,11.5 35.5,11.5C 35.5,10.1667 35.5,8.83333 35.5,7.5C 32.8333,7.5 30.1667,7.5 27.5,7.5C 27.5,6.16667 27.5,4.83333 27.5,3.5C 34.1667,3.5 40.8333,3.5 47.5,3.5C 47.5,4.83333 47.5,6.16667 47.5,7.5C 48.8333,7.5 50.1667,7.5 51.5,7.5C 51.5,8.83333 51.5,10.1667 51.5,11.5C 50.1667,11.5 48.8333,11.5 47.5,11.5C 47.5,12.8333 47.5,14.1667 47.5,15.5 Z"/></g>
<g><path style="opacity:1" fill="#d1202b" d="M 27.5,7.5 C 27.5,8.83333 27.5,10.1667 27.5,11.5C 26.1667,11.5 24.8333,11.5 23.5,11.5C 23.5,10.1667 23.5,8.83333 23.5,7.5C 24.8333,7.5 26.1667,7.5 27.5,7.5 Z"/></g>
<g><path style="opacity:1" fill="#e9dfd0" d="M 39.5,15.5 C 40.8333,15.5 42.1667,15.5 43.5,15.5C 43.5,16.8333 43.5,18.1667 43.5,19.5C 39.5,19.5 35.5,19.5 31.5,19.5C 31.5,18.1667 31.5,16.8333 31.5,15.5C 34.1667,15.5 36.8333,15.5 39.5,15.5 Z"/></g>
<g><path style="opacity:1" fill="#7b776e" d="M 43.5,15.5 C 44.8333,15.5 46.1667,15.5 47.5,15.5C 52.8333,15.5 58.1667,15.5 63.5,15.5C 63.5,16.8333 63.5,18.1667 63.5,19.5C 56.8333,19.5 50.1667,19.5 43.5,19.5C 43.5,18.1667 43.5,16.8333 43.5,15.5 Z"/></g>
<g><path style="opacity:1" fill="#1a1b1a" d="M 7.5,19.5 C 7.5,20.8333 7.5,22.1667 7.5,23.5C 6.16667,23.5 4.83333,23.5 3.5,23.5C 3.5,22.1667 3.5,20.8333 3.5,19.5C 4.83333,19.5 6.16667,19.5 7.5,19.5 Z"/></g>
<g><path style="opacity:1" fill="#fef21a" d="M 7.5,19.5 C 15.5,19.5 23.5,19.5 31.5,19.5C 31.5,20.8333 31.5,22.1667 31.5,23.5C 24.8333,23.5 18.1667,23.5 11.5,23.5C 11.5,24.8333 11.5,26.1667 11.5,27.5C 10.1667,27.5 8.83333,27.5 7.5,27.5C 7.5,34.1667 7.5,40.8333 7.5,47.5C 6.16667,47.5 4.83333,47.5 3.5,47.5C 3.5,39.5 3.5,31.5 3.5,23.5C 4.83333,23.5 6.16667,23.5 7.5,23.5C 7.5,22.1667 7.5,20.8333 7.5,19.5 Z"/></g>
<g><path style="opacity:1" fill="#1a1b1a" d="M -0.5,23.5 C 0.833333,23.5 2.16667,23.5 3.5,23.5C 3.5,31.5 3.5,39.5 3.5,47.5C 2.16667,47.5 0.833333,47.5 -0.5,47.5C -0.5,39.5 -0.5,31.5 -0.5,23.5 Z"/></g>
<g><path style="opacity:1" fill="#fac41a" d="M 31.5,23.5 C 31.5,30.1667 31.5,36.8333 31.5,43.5C 30.1667,43.5 28.8333,43.5 27.5,43.5C 27.5,44.8333 27.5,46.1667 27.5,47.5C 20.8333,47.5 14.1667,47.5 7.5,47.5C 7.5,40.8333 7.5,34.1667 7.5,27.5C 8.83333,27.5 10.1667,27.5 11.5,27.5C 11.5,26.1667 11.5,24.8333 11.5,23.5C 18.1667,23.5 24.8333,23.5 31.5,23.5 Z"/></g>
<g><path style="opacity:1" fill="#f1741a" d="M 31.5,23.5 C 32.8333,23.5 34.1667,23.5 35.5,23.5C 35.5,31.5 35.5,39.5 35.5,47.5C 34.1667,47.5 32.8333,47.5 31.5,47.5C 31.5,48.8333 31.5,50.1667 31.5,51.5C 23.5,51.5 15.5,51.5 7.5,51.5C 7.5,50.1667 7.5,48.8333 7.5,47.5C 14.1667,47.5 20.8333,47.5 27.5,47.5C 27.5,46.1667 27.5,44.8333 27.5,43.5C 28.8333,43.5 30.1667,43.5 31.5,43.5C 31.5,36.8333 31.5,30.1667 31.5,23.5 Z"/></g>
<g><path style="opacity:1" fill="#e9dfd0" d="M 51.5,23.5 C 51.5,24.8333 51.5,26.1667 51.5,27.5C 50.1667,27.5 48.8333,27.5 47.5,27.5C 46.1667,27.5 44.8333,27.5 43.5,27.5C 43.5,28.8333 43.5,30.1667 43.5,31.5C 42.1667,31.5 40.8333,31.5 39.5,31.5C 39.5,28.8333 39.5,26.1667 39.5,23.5C 43.5,23.5 47.5,23.5 51.5,23.5 Z"/></g>
<g><path style="opacity:1" fill="#b2aaa0" d="M 51.5,23.5 C 56.8333,23.5 62.1667,23.5 67.5,23.5C 67.5,30.1667 67.5,36.8333 67.5,43.5C 58.1667,43.5 48.8333,43.5 39.5,43.5C 39.5,39.5 39.5,35.5 39.5,31.5C 40.8333,31.5 42.1667,31.5 43.5,31.5C 43.5,34.1667 43.5,36.8333 43.5,39.5C 44.8333,39.5 46.1667,39.5 47.5,39.5C 47.5,35.5 47.5,31.5 47.5,27.5C 48.8333,27.5 50.1667,27.5 51.5,27.5C 51.5,26.1667 51.5,24.8333 51.5,23.5 Z"/></g>
<g><path style="opacity:1" fill="#fef21a" d="M 23.5,31.5 C 20.8333,31.5 18.1667,31.5 15.5,31.5C 15.5,30.1667 15.5,28.8333 15.5,27.5C 18.1667,27.5 20.8333,27.5 23.5,27.5C 23.5,28.8333 23.5,30.1667 23.5,31.5 Z"/></g>
<g><path style="opacity:1" fill="#0d0d0d" d="M 47.5,27.5 C 47.5,31.5 47.5,35.5 47.5,39.5C 46.1667,39.5 44.8333,39.5 43.5,39.5C 43.5,36.8333 43.5,34.1667 43.5,31.5C 43.5,30.1667 43.5,28.8333 43.5,27.5C 44.8333,27.5 46.1667,27.5 47.5,27.5 Z"/></g>
<g><path style="opacity:1" fill="#0d0d0d" d="M 51.5,27.5 C 52.8333,27.5 54.1667,27.5 55.5,27.5C 55.5,31.5 55.5,35.5 55.5,39.5C 54.1667,39.5 52.8333,39.5 51.5,39.5C 51.5,35.5 51.5,31.5 51.5,27.5 Z"/></g>
<g><path style="opacity:1" fill="#0d0d0d" d="M 59.5,27.5 C 60.8333,27.5 62.1667,27.5 63.5,27.5C 63.5,31.5 63.5,35.5 63.5,39.5C 62.1667,39.5 60.8333,39.5 59.5,39.5C 59.5,35.5 59.5,31.5 59.5,27.5 Z"/></g>
<g><path style="opacity:1" fill="#fef21a" d="M 15.5,31.5 C 15.5,34.1667 15.5,36.8333 15.5,39.5C 14.1667,39.5 12.8333,39.5 11.5,39.5C 11.5,36.8333 11.5,34.1667 11.5,31.5C 12.8333,31.5 14.1667,31.5 15.5,31.5 Z"/></g>
<g><path style="opacity:1" fill="#fac41a" d="M 15.5,31.5 C 18.1667,31.5 20.8333,31.5 23.5,31.5C 23.5,34.1667 23.5,36.8333 23.5,39.5C 20.8333,39.5 18.1667,39.5 15.5,39.5C 15.5,36.8333 15.5,34.1667 15.5,31.5 Z"/></g>
<g><path style="opacity:1" fill="#f1741a" d="M 23.5,31.5 C 24.8333,31.5 26.1667,31.5 27.5,31.5C 27.5,34.1667 27.5,36.8333 27.5,39.5C 26.1667,39.5 24.8333,39.5 23.5,39.5C 23.5,36.8333 23.5,34.1667 23.5,31.5 Z"/></g>
<g><path style="opacity:1" fill="#f1741a" d="M 15.5,39.5 C 18.1667,39.5 20.8333,39.5 23.5,39.5C 23.5,40.8333 23.5,42.1667 23.5,43.5C 20.8333,43.5 18.1667,43.5 15.5,43.5C 15.5,42.1667 15.5,40.8333 15.5,39.5 Z"/></g>
<g><path style="opacity:1" fill="#1a1b1a" d="M 3.5,47.5 C 4.83333,47.5 6.16667,47.5 7.5,47.5C 7.5,48.8333 7.5,50.1667 7.5,51.5C 6.16667,51.5 4.83333,51.5 3.5,51.5C 3.5,50.1667 3.5,48.8333 3.5,47.5 Z"/></g>
<g><path style="opacity:1" fill="#1a1b1a" d="M 35.5,47.5 C 35.5,48.8333 35.5,50.1667 35.5,51.5C 34.1667,51.5 32.8333,51.5 31.5,51.5C 31.5,50.1667 31.5,48.8333 31.5,47.5C 32.8333,47.5 34.1667,47.5 35.5,47.5 Z"/></g>
<g><path style="opacity:1" fill="#0a702f" d="M 35.5,47.5 C 36.8333,47.5 38.1667,47.5 39.5,47.5C 39.5,50.1667 39.5,52.8333 39.5,55.5C 38.1667,55.5 36.8333,55.5 35.5,55.5C 35.5,56.8333 35.5,58.1667 35.5,59.5C 30.1667,59.5 24.8333,59.5 19.5,59.5C 19.5,58.1667 19.5,56.8333 19.5,55.5C 23.5,55.5 27.5,55.5 31.5,55.5C 31.5,54.1667 31.5,52.8333 31.5,51.5C 32.8333,51.5 34.1667,51.5 35.5,51.5C 35.5,50.1667 35.5,48.8333 35.5,47.5 Z"/></g>
<g><path style="opacity:1" fill="#eaa723" d="M 39.5,47.5 C 47.5,47.5 55.5,47.5 63.5,47.5C 63.5,48.8333 63.5,50.1667 63.5,51.5C 56.8333,51.5 50.1667,51.5 43.5,51.5C 43.5,54.1667 43.5,56.8333 43.5,59.5C 42.1667,59.5 40.8333,59.5 39.5,59.5C 39.5,60.8333 39.5,62.1667 39.5,63.5C 32.8333,63.5 26.1667,63.5 19.5,63.5C 19.5,62.1667 19.5,60.8333 19.5,59.5C 24.8333,59.5 30.1667,59.5 35.5,59.5C 35.5,58.1667 35.5,56.8333 35.5,55.5C 36.8333,55.5 38.1667,55.5 39.5,55.5C 39.5,52.8333 39.5,50.1667 39.5,47.5 Z"/></g>
<g><path style="opacity:1" fill="#7b776e" d="M 63.5,55.5 C 63.5,56.8333 63.5,58.1667 63.5,59.5C 60.8333,59.5 58.1667,59.5 55.5,59.5C 55.5,60.8333 55.5,62.1667 55.5,63.5C 52.8333,63.5 50.1667,63.5 47.5,63.5C 47.5,60.8333 47.5,58.1667 47.5,55.5C 52.8333,55.5 58.1667,55.5 63.5,55.5 Z"/></g>
<g><path style="opacity:1" fill="#b2aaa0" d="M 63.5,55.5 C 64.8333,55.5 66.1667,55.5 67.5,55.5C 67.5,58.1667 67.5,60.8333 67.5,63.5C 63.5,63.5 59.5,63.5 55.5,63.5C 55.5,62.1667 55.5,60.8333 55.5,59.5C 58.1667,59.5 60.8333,59.5 63.5,59.5C 63.5,58.1667 63.5,56.8333 63.5,55.5 Z"/></g>
</svg>
